<svg width="1024" height="753" viewBox="0 0 1024 753" fill="none" xmlns="http://www.w3.org/2000/svg">
<g clip-path="url(#clip0_122_130)">
<rect width="1024" height="753" fill="#121214"/>
<g opacity="0.2" filter="url(#filter0_f_122_130)">
<ellipse cx="511.5" cy="46.313" rx="670.5" ry="526.313" fill="#35875D"/>
</g>
<path d="M32.0349 401.198C33.5302 401.198 34.6622 402.146 35.4308 404.042C36.2134 405.917 36.6047 408.647 36.6047 412.23C36.6047 415.813 36.2134 418.553 35.4308 420.449C34.6622 422.345 33.5302 423.293 32.0349 423.293C30.5536 423.293 29.4216 422.345 28.639 420.449C27.8564 418.553 27.4651 415.813 27.4651 412.23C27.4651 408.667 27.8564 405.938 28.639 404.042C29.4216 402.146 30.5536 401.198 32.0349 401.198ZM28.9534 412.23C28.9534 414.772 29.1072 416.761 29.4146 418.199L34.0683 404.355C33.5791 403.375 32.9013 402.886 32.0349 402.886C31.0706 402.886 30.316 403.657 29.771 405.198C29.2259 406.719 28.9534 409.063 28.9534 412.23ZM32.0349 421.574C33.0131 421.574 33.7748 420.814 34.3198 419.293C34.8648 417.751 35.1373 415.397 35.1373 412.23C35.1373 409.542 34.9627 407.459 34.6133 405.98L29.9596 419.949C30.4627 421.032 31.1545 421.574 32.0349 421.574Z" fill="url(#paint0_linear_122_130)" fill-opacity="0.6"/>
<path d="M33.2926 457.04H36.3741V458.696H28.3874V457.04H31.9511V439.477L28.5551 442.508L27.9682 441.102L32.1607 437.227H33.2926V457.04Z" fill="url(#paint1_linear_122_130)" fill-opacity="0.6"/>
<path d="M32.0349 472.63C33.5302 472.63 34.6622 473.578 35.4308 475.474C36.2134 477.349 36.6047 480.078 36.6047 483.661C36.6047 487.245 36.2134 489.985 35.4308 491.88C34.6622 493.776 33.5302 494.724 32.0349 494.724C30.5536 494.724 29.4216 493.776 28.639 491.88C27.8564 489.985 27.4651 487.245 27.4651 483.661C27.4651 480.099 27.8564 477.369 28.639 475.474C29.4216 473.578 30.5536 472.63 32.0349 472.63ZM28.9534 483.661C28.9534 486.203 29.1072 488.193 29.4146 489.63L34.0683 475.786C33.5791 474.807 32.9013 474.317 32.0349 474.317C31.0706 474.317 30.316 475.088 29.771 476.63C29.2259 478.151 28.9534 480.495 28.9534 483.661ZM32.0349 493.005C33.0131 493.005 33.7748 492.245 34.3198 490.724C34.8648 489.182 35.1373 486.828 35.1373 483.661C35.1373 480.974 34.9627 478.89 34.6133 477.411L29.9596 491.38C30.4627 492.464 31.1545 493.005 32.0349 493.005Z" fill="url(#paint2_linear_122_130)" fill-opacity="0.6"/>
<path d="M33.2926 528.471H36.3741V530.127H28.3874V528.471H31.9511V510.908L28.5551 513.939L27.9682 512.533L32.1607 508.658H33.2926V528.471Z" fill="url(#paint3_linear_122_130)" fill-opacity="0.6"/>
<path d="M33.2926 564.187H36.3741V565.843H28.3874V564.187H31.9511V546.624L28.5551 549.655L27.9682 548.249L32.1607 544.374H33.2926V564.187Z" fill="url(#paint4_linear_122_130)" fill-opacity="0.6"/>
<path d="M32.0349 579.777C33.5302 579.777 34.6622 580.725 35.4308 582.621C36.2134 584.496 36.6047 587.225 36.6047 590.808C36.6047 594.392 36.2134 597.132 35.4308 599.027C34.6622 600.923 33.5302 601.871 32.0349 601.871C30.5536 601.871 29.4216 600.923 28.639 599.027C27.8564 597.132 27.4651 594.392 27.4651 590.808C27.4651 587.246 27.8564 584.517 28.639 582.621C29.4216 580.725 30.5536 579.777 32.0349 579.777ZM28.9534 590.808C28.9534 593.35 29.1072 595.34 29.4146 596.777L34.0683 582.933C33.5791 581.954 32.9013 581.464 32.0349 581.464C31.0706 581.464 30.316 582.235 29.771 583.777C29.2259 585.298 28.9534 587.642 28.9534 590.808ZM32.0349 600.153C33.0131 600.153 33.7748 599.392 34.3198 597.871C34.8648 596.329 35.1373 593.975 35.1373 590.808C35.1373 588.121 34.9627 586.037 34.6133 584.558L29.9596 598.527C30.4627 599.611 31.1545 600.153 32.0349 600.153Z" fill="url(#paint5_linear_122_130)" fill-opacity="0.6"/>
<path d="M33.2926 635.618H36.3741V637.275H28.3874V635.618H31.9511V618.055L28.5551 621.086L27.9682 619.68L32.1607 615.805H33.2926V635.618Z" fill="url(#paint6_linear_122_130)" fill-opacity="0.6"/>
<path d="M32.0349 651.208C33.5302 651.208 34.6622 652.156 35.4308 654.052C36.2134 655.927 36.6047 658.656 36.6047 662.24C36.6047 665.823 36.2134 668.563 35.4308 670.459C34.6622 672.355 33.5302 673.303 32.0349 673.303C30.5536 673.303 29.4216 672.355 28.639 670.459C27.8564 668.563 27.4651 665.823 27.4651 662.24C27.4651 658.677 27.8564 655.948 28.639 654.052C29.4216 652.156 30.5536 651.208 32.0349 651.208ZM28.9534 662.24C28.9534 664.782 29.1072 666.771 29.4146 668.209L34.0683 654.364C33.5791 653.385 32.9013 652.896 32.0349 652.896C31.0706 652.896 30.316 653.667 29.771 655.208C29.2259 656.729 28.9534 659.073 28.9534 662.24ZM32.0349 671.584C33.0131 671.584 33.7748 670.823 34.3198 669.303C34.8648 667.761 35.1373 665.407 35.1373 662.24C35.1373 659.552 34.9627 657.469 34.6133 655.99L29.9596 669.959C30.4627 671.042 31.1545 671.584 32.0349 671.584Z" fill="url(#paint7_linear_122_130)" fill-opacity="0.6"/>
<path d="M32.0349 686.924C33.5302 686.924 34.6622 687.872 35.4308 689.768C36.2134 691.643 36.6047 694.372 36.6047 697.955C36.6047 701.539 36.2134 704.279 35.4308 706.175C34.6622 708.07 33.5302 709.018 32.0349 709.018C30.5536 709.018 29.4216 708.07 28.639 706.175C27.8564 704.279 27.4651 701.539 27.4651 697.955C27.4651 694.393 27.8564 691.664 28.639 689.768C29.4216 687.872 30.5536 686.924 32.0349 686.924ZM28.9534 697.955C28.9534 700.497 29.1072 702.487 29.4146 703.924L34.0683 690.08C33.5791 689.101 32.9013 688.611 32.0349 688.611C31.0706 688.611 30.316 689.382 29.771 690.924C29.2259 692.445 28.9534 694.789 28.9534 697.955ZM32.0349 707.3C33.0131 707.3 33.7748 706.539 34.3198 705.018C34.8648 703.477 35.1373 701.122 35.1373 697.955C35.1373 695.268 34.9627 693.184 34.6133 691.705L29.9596 705.675C30.4627 706.758 31.1545 707.3 32.0349 707.3Z" fill="url(#paint8_linear_122_130)" fill-opacity="0.6"/>
<path d="M33.2926 742.765H36.3741V744.422H28.3874V742.765H31.9511V725.202L28.5551 728.233L27.9682 726.827L32.1607 722.952H33.2926V742.765Z" fill="url(#paint9_linear_122_130)" fill-opacity="0.6"/>
<path d="M32.0349 758.355C33.5302 758.355 34.6622 759.303 35.4308 761.199C36.2134 763.074 36.6047 765.803 36.6047 769.387C36.6047 772.97 36.2134 775.71 35.4308 777.606C34.6622 779.502 33.5302 780.45 32.0349 780.45C30.5536 780.45 29.4216 779.502 28.639 777.606C27.8564 775.71 27.4651 772.97 27.4651 769.387C27.4651 765.824 27.8564 763.095 28.639 761.199C29.4216 759.303 30.5536 758.355 32.0349 758.355ZM28.9534 769.387C28.9534 771.929 29.1072 773.918 29.4146 775.356L34.0683 761.512C33.5791 760.532 32.9013 760.043 32.0349 760.043C31.0706 760.043 30.316 760.814 29.771 762.355C29.2259 763.876 28.9534 766.22 28.9534 769.387ZM32.0349 778.731C33.0131 778.731 33.7748 777.971 34.3198 776.45C34.8648 774.908 35.1373 772.554 35.1373 769.387C35.1373 766.699 34.9627 764.616 34.6133 763.137L29.9596 777.106C30.4627 778.189 31.1545 778.731 32.0349 778.731Z" fill="url(#paint10_linear_122_130)" fill-opacity="0.6"/>
<path d="M33.2926 814.197H36.3741V815.853H28.3874V814.197H31.9511V796.633L28.5551 799.665L27.9682 798.259L32.1607 794.383H33.2926V814.197Z" fill="url(#paint11_linear_122_130)" fill-opacity="0.6"/>
<path d="M33.2926 849.912H36.3741V851.569H28.3874V849.912H31.9511V832.349L28.5551 835.381L27.9682 833.974L32.1607 830.099H33.2926V849.912Z" fill="url(#paint12_linear_122_130)" fill-opacity="0.6"/>
<path d="M70.9651 472.63C72.4604 472.63 73.5924 473.578 74.361 475.474C75.1436 477.349 75.5349 480.078 75.5349 483.661C75.5349 487.245 75.1436 489.985 74.361 491.88C73.5924 493.776 72.4604 494.724 70.9651 494.724C69.4838 494.724 68.3518 493.776 67.5692 491.88C66.7866 489.985 66.3953 487.245 66.3953 483.661C66.3953 480.099 66.7866 477.369 67.5692 475.474C68.3518 473.578 69.4838 472.63 70.9651 472.63ZM67.8836 483.661C67.8836 486.203 68.0374 488.193 68.3448 489.63L72.9985 475.786C72.5093 474.807 71.8315 474.317 70.9651 474.317C70.0008 474.317 69.2462 475.088 68.7012 476.63C68.1561 478.151 67.8836 480.495 67.8836 483.661ZM70.9651 493.005C71.9433 493.005 72.705 492.245 73.25 490.724C73.795 489.182 74.0675 486.828 74.0675 483.661C74.0675 480.974 73.8928 478.89 73.5435 477.411L68.8898 491.38C69.3929 492.464 70.0847 493.005 70.9651 493.005Z" fill="url(#paint13_linear_122_130)" fill-opacity="0.6"/>
<path d="M72.2228 528.471H75.3043V530.127H67.3176V528.471H70.8812V510.908L67.4853 513.939L66.8984 512.533L71.0909 508.658H72.2228V528.471Z" fill="url(#paint14_linear_122_130)" fill-opacity="0.6"/>
<path d="M70.9651 544.061C72.4604 544.061 73.5924 545.009 74.361 546.905C75.1436 548.78 75.5349 551.509 75.5349 555.093C75.5349 558.676 75.1436 561.416 74.361 563.312C73.5924 565.208 72.4604 566.156 70.9651 566.156C69.4838 566.156 68.3518 565.208 67.5692 563.312C66.7866 561.416 66.3953 558.676 66.3953 555.093C66.3953 551.53 66.7866 548.801 67.5692 546.905C68.3518 545.009 69.4838 544.061 70.9651 544.061ZM67.8836 555.093C67.8836 557.634 68.0374 559.624 68.3448 561.062L72.9985 547.217C72.5093 546.238 71.8315 545.749 70.9651 545.749C70.0008 545.749 69.2462 546.519 68.7012 548.061C68.1561 549.582 67.8836 551.926 67.8836 555.093ZM70.9651 564.437C71.9433 564.437 72.705 563.676 73.25 562.156C73.795 560.614 74.0675 558.26 74.0675 555.093C74.0675 552.405 73.8928 550.322 73.5435 548.842L68.8898 562.812C69.3929 563.895 70.0847 564.437 70.9651 564.437Z" fill="url(#paint15_linear_122_130)" fill-opacity="0.6"/>
<path d="M70.9651 579.777C72.4604 579.777 73.5924 580.725 74.361 582.621C75.1436 584.496 75.5349 587.225 75.5349 590.808C75.5349 594.392 75.1436 597.132 74.361 599.027C73.5924 600.923 72.4604 601.871 70.9651 601.871C69.4838 601.871 68.3518 600.923 67.5692 599.027C66.7866 597.132 66.3953 594.392 66.3953 590.808C66.3953 587.246 66.7866 584.517 67.5692 582.621C68.3518 580.725 69.4838 579.777 70.9651 579.777ZM67.8836 590.808C67.8836 593.35 68.0374 595.34 68.3448 596.777L72.9985 582.933C72.5093 581.954 71.8315 581.464 70.9651 581.464C70.0008 581.464 69.2462 582.235 68.7012 583.777C68.1561 585.298 67.8836 587.642 67.8836 590.808ZM70.9651 600.153C71.9433 600.153 72.705 599.392 73.25 597.871C73.795 596.329 74.0675 593.975 74.0675 590.808C74.0675 588.121 73.8928 586.037 73.5435 584.558L68.8898 598.527C69.3929 599.611 70.0847 600.153 70.9651 600.153Z" fill="url(#paint16_linear_122_130)" fill-opacity="0.6"/>
<path d="M72.2228 635.618H75.3043V637.275H67.3176V635.618H70.8812V618.055L67.4853 621.086L66.8984 619.68L71.0909 615.805H72.2228V635.618Z" fill="url(#paint17_linear_122_130)" fill-opacity="0.6"/>
<path d="M70.9651 651.208C72.4604 651.208 73.5924 652.156 74.361 654.052C75.1436 655.927 75.5349 658.656 75.5349 662.24C75.5349 665.823 75.1436 668.563 74.361 670.459C73.5924 672.355 72.4604 673.303 70.9651 673.303C69.4838 673.303 68.3518 672.355 67.5692 670.459C66.7866 668.563 66.3953 665.823 66.3953 662.24C66.3953 658.677 66.7866 655.948 67.5692 654.052C68.3518 652.156 69.4838 651.208 70.9651 651.208ZM67.8836 662.24C67.8836 664.782 68.0374 666.771 68.3448 668.209L72.9985 654.364C72.5093 653.385 71.8315 652.896 70.9651 652.896C70.0008 652.896 69.2462 653.667 68.7012 655.208C68.1561 656.729 67.8836 659.073 67.8836 662.24ZM70.9651 671.584C71.9433 671.584 72.705 670.823 73.25 669.303C73.795 667.761 74.0675 665.407 74.0675 662.24C74.0675 659.552 73.8928 657.469 73.5435 655.99L68.8898 669.959C69.3929 671.042 70.0847 671.584 70.9651 671.584Z" fill="url(#paint18_linear_122_130)" fill-opacity="0.6"/>
<path d="M72.2228 707.05H75.3043V708.706H67.3176V707.05H70.8812V689.486L67.4853 692.518L66.8984 691.111L71.0909 687.236H72.2228V707.05Z" fill="url(#paint19_linear_122_130)" fill-opacity="0.6"/>
<path d="M70.9651 722.639C72.4604 722.639 73.5924 723.587 74.361 725.483C75.1436 727.358 75.5349 730.088 75.5349 733.671C75.5349 737.255 75.1436 739.994 74.361 741.89C73.5924 743.786 72.4604 744.734 70.9651 744.734C69.4838 744.734 68.3518 743.786 67.5692 741.89C66.7866 739.994 66.3953 737.255 66.3953 733.671C66.3953 730.109 66.7866 727.379 67.5692 725.483C68.3518 723.587 69.4838 722.639 70.9651 722.639ZM67.8836 733.671C67.8836 736.213 68.0374 738.203 68.3448 739.64L72.9985 725.796C72.5093 724.817 71.8315 724.327 70.9651 724.327C70.0008 724.327 69.2462 725.098 68.7012 726.64C68.1561 728.161 67.8836 730.504 67.8836 733.671ZM70.9651 743.015C71.9433 743.015 72.705 742.255 73.25 740.734C73.795 739.192 74.0675 736.838 74.0675 733.671C74.0675 730.984 73.8928 728.9 73.5435 727.421L68.8898 741.39C69.3929 742.474 70.0847 743.015 70.9651 743.015Z" fill="url(#paint20_linear_122_130)" fill-opacity="0.6"/>
<path d="M70.9651 758.355C72.4604 758.355 73.5924 759.303 74.361 761.199C75.1436 763.074 75.5349 765.803 75.5349 769.387C75.5349 772.97 75.1436 775.71 74.361 777.606C73.5924 779.502 72.4604 780.45 70.9651 780.45C69.4838 780.45 68.3518 779.502 67.5692 777.606C66.7866 775.71 66.3953 772.97 66.3953 769.387C66.3953 765.824 66.7866 763.095 67.5692 761.199C68.3518 759.303 69.4838 758.355 70.9651 758.355ZM67.8836 769.387C67.8836 771.929 68.0374 773.918 68.3448 775.356L72.9985 761.512C72.5093 760.532 71.8315 760.043 70.9651 760.043C70.0008 760.043 69.2462 760.814 68.7012 762.355C68.1561 763.876 67.8836 766.22 67.8836 769.387ZM70.9651 778.731C71.9433 778.731 72.705 777.971 73.25 776.45C73.795 774.908 74.0675 772.554 74.0675 769.387C74.0675 766.699 73.8928 764.616 73.5435 763.137L68.8898 777.106C69.3929 778.189 70.0847 778.731 70.9651 778.731Z" fill="url(#paint21_linear_122_130)" fill-opacity="0.6"/>
<path d="M72.2228 814.197H75.3043V815.853H67.3176V814.197H70.8812V796.633L67.4853 799.665L66.8984 798.259L71.0909 794.383H72.2228V814.197Z" fill="url(#paint22_linear_122_130)" fill-opacity="0.6"/>
<path d="M70.9651 829.787C72.4604 829.787 73.5924 830.734 74.361 832.63C75.1436 834.505 75.5349 837.235 75.5349 840.818C75.5349 844.402 75.1436 847.141 74.361 849.037C73.5924 850.933 72.4604 851.881 70.9651 851.881C69.4838 851.881 68.3518 850.933 67.5692 849.037C66.7866 847.141 66.3953 844.402 66.3953 840.818C66.3953 837.256 66.7866 834.526 67.5692 832.63C68.3518 830.734 69.4838 829.787 70.9651 829.787ZM67.8836 840.818C67.8836 843.36 68.0374 845.35 68.3448 846.787L72.9985 832.943C72.5093 831.964 71.8315 831.474 70.9651 831.474C70.0008 831.474 69.2462 832.245 68.7012 833.787C68.1561 835.308 67.8836 837.651 67.8836 840.818ZM70.9651 850.162C71.9433 850.162 72.705 849.402 73.25 847.881C73.795 846.339 74.0675 843.985 74.0675 840.818C74.0675 838.131 73.8928 836.047 73.5435 834.568L68.8898 848.537C69.3929 849.621 70.0847 850.162 70.9651 850.162Z" fill="url(#paint23_linear_122_130)" fill-opacity="0.6"/>
<path d="M72.2228 885.628H75.3043V887.284H67.3176V885.628H70.8812V868.065L67.4853 871.096L66.8984 869.69L71.0909 865.815H72.2228V885.628Z" fill="url(#paint24_linear_122_130)" fill-opacity="0.6"/>
<path d="M72.2228 921.344H75.3043V923H67.3176V921.344H70.8812V903.781L67.4853 906.812L66.8984 905.406L71.0909 901.53H72.2228V921.344Z" fill="url(#paint25_linear_122_130)" fill-opacity="0.6"/>
<path d="M12.5698 508.345C14.0651 508.345 15.1971 509.293 15.9657 511.189C16.7483 513.064 17.1396 515.794 17.1396 519.377C17.1396 522.961 16.7483 525.7 15.9657 527.596C15.1971 529.492 14.0651 530.44 12.5698 530.44C11.0885 530.44 9.95649 529.492 9.1739 527.596C8.3913 525.7 8 522.961 8 519.377C8 515.814 8.3913 513.085 9.1739 511.189C9.95649 509.293 11.0885 508.345 12.5698 508.345ZM9.48833 519.377C9.48833 521.919 9.64206 523.908 9.9495 525.346L14.6032 511.502C14.114 510.523 13.4363 510.033 12.5698 510.033C11.6055 510.033 10.8509 510.804 10.3059 512.346C9.76084 513.866 9.48833 516.21 9.48833 519.377ZM12.5698 528.721C13.5481 528.721 14.3097 527.961 14.8547 526.44C15.3997 524.898 15.6722 522.544 15.6722 519.377C15.6722 516.689 15.4976 514.606 15.1482 513.127L10.4945 527.096C10.9976 528.179 11.6894 528.721 12.5698 528.721Z" fill="url(#paint26_linear_122_130)" fill-opacity="0.6"/>
<path d="M12.5698 544.061C14.0651 544.061 15.1971 545.009 15.9657 546.905C16.7483 548.78 17.1396 551.509 17.1396 555.093C17.1396 558.676 16.7483 561.416 15.9657 563.312C15.1971 565.208 14.0651 566.156 12.5698 566.156C11.0885 566.156 9.95649 565.208 9.1739 563.312C8.3913 561.416 8 558.676 8 555.093C8 551.53 8.3913 548.801 9.1739 546.905C9.95649 545.009 11.0885 544.061 12.5698 544.061ZM9.48833 555.093C9.48833 557.634 9.64206 559.624 9.9495 561.062L14.6032 547.217C14.114 546.238 13.4363 545.749 12.5698 545.749C11.6055 545.749 10.8509 546.519 10.3059 548.061C9.76084 549.582 9.48833 551.926 9.48833 555.093ZM12.5698 564.437C13.5481 564.437 14.3097 563.676 14.8547 562.156C15.3997 560.614 15.6722 558.26 15.6722 555.093C15.6722 552.405 15.4976 550.322 15.1482 548.842L10.4945 562.812C10.9976 563.895 11.6894 564.437 12.5698 564.437Z" fill="url(#paint27_linear_122_130)" fill-opacity="0.6"/>
<path d="M13.8276 599.903H16.909V601.559H8.92235V599.903H12.486V582.339L9.09005 585.371L8.5031 583.964L12.6956 580.089H13.8276V599.903Z" fill="url(#paint28_linear_122_130)" fill-opacity="0.6"/>
<path d="M12.5698 615.492C14.0651 615.492 15.1971 616.44 15.9657 618.336C16.7483 620.211 17.1396 622.941 17.1396 626.524C17.1396 630.108 16.7483 632.847 15.9657 634.743C15.1971 636.639 14.0651 637.587 12.5698 637.587C11.0885 637.587 9.95649 636.639 9.1739 634.743C8.3913 632.847 8 630.108 8 626.524C8 622.961 8.3913 620.232 9.1739 618.336C9.95649 616.44 11.0885 615.492 12.5698 615.492ZM9.48833 626.524C9.48833 629.066 9.64206 631.056 9.9495 632.493L14.6032 618.649C14.114 617.67 13.4363 617.18 12.5698 617.18C11.6055 617.18 10.8509 617.951 10.3059 619.493C9.76084 621.013 9.48833 623.357 9.48833 626.524ZM12.5698 635.868C13.5481 635.868 14.3097 635.108 14.8547 633.587C15.3997 632.045 15.6722 629.691 15.6722 626.524C15.6722 623.837 15.4976 621.753 15.1482 620.274L10.4945 634.243C10.9976 635.327 11.6894 635.868 12.5698 635.868Z" fill="url(#paint29_linear_122_130)" fill-opacity="0.6"/>
<path d="M13.8276 671.334H16.909V672.99H8.92235V671.334H12.486V653.771L9.09005 656.802L8.5031 655.396L12.6956 651.521H13.8276V671.334Z" fill="url(#paint30_linear_122_130)" fill-opacity="0.6"/>
<path d="M13.8276 707.05H16.909V708.706H8.92235V707.05H12.486V689.486L9.09005 692.518L8.5031 691.111L12.6956 687.236H13.8276V707.05Z" fill="url(#paint31_linear_122_130)" fill-opacity="0.6"/>
<path d="M52.7577 457.04H55.8392V458.696H47.8525V457.04H51.4162V439.477L48.0202 442.508L47.4333 441.102L51.6258 437.227H52.7577V457.04Z" fill="url(#paint32_linear_122_130)" fill-opacity="0.6"/>
<path d="M51.5 472.63C52.9953 472.63 54.1273 473.578 54.8959 475.474C55.6785 477.349 56.0698 480.078 56.0698 483.661C56.0698 487.245 55.6785 489.985 54.8959 491.88C54.1273 493.776 52.9953 494.724 51.5 494.724C50.0187 494.724 48.8867 493.776 48.1041 491.88C47.3215 489.985 46.9302 487.245 46.9302 483.661C46.9302 480.099 47.3215 477.369 48.1041 475.474C48.8867 473.578 50.0187 472.63 51.5 472.63ZM48.4185 483.661C48.4185 486.203 48.5723 488.193 48.8797 489.63L53.5334 475.786C53.0442 474.807 52.3664 474.317 51.5 474.317C50.5357 474.317 49.7811 475.088 49.2361 476.63C48.691 478.151 48.4185 480.495 48.4185 483.661ZM51.5 493.005C52.4782 493.005 53.2399 492.245 53.7849 490.724C54.3299 489.182 54.6024 486.828 54.6024 483.661C54.6024 480.974 54.4277 478.89 54.0784 477.411L49.4247 491.38C49.9278 492.464 50.6196 493.005 51.5 493.005Z" fill="url(#paint33_linear_122_130)" fill-opacity="0.6"/>
<path d="M52.7577 528.471H55.8392V530.127H47.8525V528.471H51.4162V510.908L48.0202 513.939L47.4333 512.533L51.6258 508.658H52.7577V528.471Z" fill="url(#paint34_linear_122_130)" fill-opacity="0.6"/>
<path d="M52.7577 564.187H55.8392V565.843H47.8525V564.187H51.4162V546.624L48.0202 549.655L47.4333 548.249L51.6258 544.374H52.7577V564.187Z" fill="url(#paint35_linear_122_130)" fill-opacity="0.6"/>
<path d="M51.5 579.777C52.9953 579.777 54.1273 580.725 54.8959 582.621C55.6785 584.496 56.0698 587.225 56.0698 590.808C56.0698 594.392 55.6785 597.132 54.8959 599.027C54.1273 600.923 52.9953 601.871 51.5 601.871C50.0187 601.871 48.8867 600.923 48.1041 599.027C47.3215 597.132 46.9302 594.392 46.9302 590.808C46.9302 587.246 47.3215 584.517 48.1041 582.621C48.8867 580.725 50.0187 579.777 51.5 579.777ZM48.4185 590.808C48.4185 593.35 48.5723 595.34 48.8797 596.777L53.5334 582.933C53.0442 581.954 52.3664 581.464 51.5 581.464C50.5357 581.464 49.7811 582.235 49.2361 583.777C48.691 585.298 48.4185 587.642 48.4185 590.808ZM51.5 600.153C52.4782 600.153 53.2399 599.392 53.7849 597.871C54.3299 596.329 54.6024 593.975 54.6024 590.808C54.6024 588.121 54.4277 586.037 54.0784 584.558L49.4247 598.527C49.9278 599.611 50.6196 600.153 51.5 600.153Z" fill="url(#paint36_linear_122_130)" fill-opacity="0.6"/>
<path d="M52.7577 635.618H55.8392V637.275H47.8525V635.618H51.4162V618.055L48.0202 621.086L47.4333 619.68L51.6258 615.805H52.7577V635.618Z" fill="url(#paint37_linear_122_130)" fill-opacity="0.6"/>
<path d="M52.7577 671.334H55.8392V672.99H47.8525V671.334H51.4162V653.771L48.0202 656.802L47.4333 655.396L51.6258 651.521H52.7577V671.334Z" fill="url(#paint38_linear_122_130)" fill-opacity="0.6"/>
<path d="M51.5 686.924C52.9953 686.924 54.1273 687.872 54.8959 689.768C55.6785 691.643 56.0698 694.372 56.0698 697.955C56.0698 701.539 55.6785 704.279 54.8959 706.175C54.1273 708.07 52.9953 709.018 51.5 709.018C50.0187 709.018 48.8867 708.07 48.1041 706.175C47.3215 704.279 46.9302 701.539 46.9302 697.955C46.9302 694.393 47.3215 691.664 48.1041 689.768C48.8867 687.872 50.0187 686.924 51.5 686.924ZM48.4185 697.955C48.4185 700.497 48.5723 702.487 48.8797 703.924L53.5334 690.08C53.0442 689.101 52.3664 688.611 51.5 688.611C50.5357 688.611 49.7811 689.382 49.2361 690.924C48.691 692.445 48.4185 694.789 48.4185 697.955ZM51.5 707.3C52.4782 707.3 53.2399 706.539 53.7849 705.018C54.3299 703.477 54.6024 701.122 54.6024 697.955C54.6024 695.268 54.4277 693.184 54.0784 691.705L49.4247 705.675C49.9278 706.758 50.6196 707.3 51.5 707.3Z" fill="url(#paint39_linear_122_130)" fill-opacity="0.6"/>
<path d="M52.7577 742.765H55.8392V744.422H47.8525V742.765H51.4162V725.202L48.0202 728.233L47.4333 726.827L51.6258 722.952H52.7577V742.765Z" fill="url(#paint40_linear_122_130)" fill-opacity="0.6"/>
<path d="M51.5 758.355C52.9953 758.355 54.1273 759.303 54.8959 761.199C55.6785 763.074 56.0698 765.803 56.0698 769.387C56.0698 772.97 55.6785 775.71 54.8959 777.606C54.1273 779.502 52.9953 780.45 51.5 780.45C50.0187 780.45 48.8867 779.502 48.1041 777.606C47.3215 775.71 46.9302 772.97 46.9302 769.387C46.9302 765.824 47.3215 763.095 48.1041 761.199C48.8867 759.303 50.0187 758.355 51.5 758.355ZM48.4185 769.387C48.4185 771.929 48.5723 773.918 48.8797 775.356L53.5334 761.512C53.0442 760.532 52.3664 760.043 51.5 760.043C50.5357 760.043 49.7811 760.814 49.2361 762.355C48.691 763.876 48.4185 766.22 48.4185 769.387ZM51.5 778.731C52.4782 778.731 53.2399 777.971 53.7849 776.45C54.3299 774.908 54.6024 772.554 54.6024 769.387C54.6024 766.699 54.4277 764.616 54.0784 763.137L49.4247 777.106C49.9278 778.189 50.6196 778.731 51.5 778.731Z" fill="url(#paint41_linear_122_130)" fill-opacity="0.6"/>
<path d="M90.4302 436.914C91.9255 436.914 93.0575 437.862 93.8261 439.758C94.6087 441.633 95 444.362 95 447.946C95 451.529 94.6087 454.269 93.8261 456.165C93.0575 458.061 91.9255 459.009 90.4302 459.009C88.9489 459.009 87.8169 458.061 87.0343 456.165C86.2517 454.269 85.8604 451.529 85.8604 447.946C85.8604 444.383 86.2517 441.654 87.0343 439.758C87.8169 437.862 88.9489 436.914 90.4302 436.914ZM87.3487 447.946C87.3487 450.487 87.5024 452.477 87.8099 453.915L92.4636 440.07C91.9744 439.091 91.2966 438.602 90.4302 438.602C89.4659 438.602 88.7113 439.372 88.1663 440.914C87.6212 442.435 87.3487 444.779 87.3487 447.946ZM90.4302 457.29C91.4084 457.29 92.1701 456.529 92.7151 455.008C93.2601 453.467 93.5326 451.112 93.5326 447.946C93.5326 445.258 93.3579 443.175 93.0086 441.695L88.3549 455.665C88.858 456.748 89.5498 457.29 90.4302 457.29Z" fill="url(#paint42_linear_122_130)" fill-opacity="0.6"/>
<path d="M91.6879 492.755H94.7694V494.412H86.7827V492.755H90.3463V475.192L86.9504 478.224L86.3635 476.817L90.556 472.942H91.6879V492.755Z" fill="url(#paint43_linear_122_130)" fill-opacity="0.6"/>
<path d="M91.6879 528.471H94.7694V530.127H86.7827V528.471H90.3463V510.908L86.9504 513.939L86.3635 512.533L90.556 508.658H91.6879V528.471Z" fill="url(#paint44_linear_122_130)" fill-opacity="0.6"/>
<path d="M90.4302 544.061C91.9255 544.061 93.0575 545.009 93.8261 546.905C94.6087 548.78 95 551.509 95 555.093C95 558.676 94.6087 561.416 93.8261 563.312C93.0575 565.208 91.9255 566.156 90.4302 566.156C88.9489 566.156 87.8169 565.208 87.0343 563.312C86.2517 561.416 85.8604 558.676 85.8604 555.093C85.8604 551.53 86.2517 548.801 87.0343 546.905C87.8169 545.009 88.9489 544.061 90.4302 544.061ZM87.3487 555.093C87.3487 557.634 87.5024 559.624 87.8099 561.062L92.4636 547.217C91.9744 546.238 91.2966 545.749 90.4302 545.749C89.4659 545.749 88.7113 546.519 88.1663 548.061C87.6212 549.582 87.3487 551.926 87.3487 555.093ZM90.4302 564.437C91.4084 564.437 92.1701 563.676 92.7151 562.156C93.2601 560.614 93.5326 558.26 93.5326 555.093C93.5326 552.405 93.3579 550.322 93.0086 548.842L88.3549 562.812C88.858 563.895 89.5498 564.437 90.4302 564.437Z" fill="url(#paint45_linear_122_130)" fill-opacity="0.6"/>
<path d="M90.4302 579.777C91.9255 579.777 93.0575 580.725 93.8261 582.621C94.6087 584.496 95 587.225 95 590.808C95 594.392 94.6087 597.132 93.8261 599.027C93.0575 600.923 91.9255 601.871 90.4302 601.871C88.9489 601.871 87.8169 600.923 87.0343 599.027C86.2517 597.132 85.8604 594.392 85.8604 590.808C85.8604 587.246 86.2517 584.517 87.0343 582.621C87.8169 580.725 88.9489 579.777 90.4302 579.777ZM87.3487 590.808C87.3487 593.35 87.5024 595.34 87.8099 596.777L92.4636 582.933C91.9744 581.954 91.2966 581.464 90.4302 581.464C89.4659 581.464 88.7113 582.235 88.1663 583.777C87.6212 585.298 87.3487 587.642 87.3487 590.808ZM90.4302 600.153C91.4084 600.153 92.1701 599.392 92.7151 597.871C93.2601 596.329 93.5326 593.975 93.5326 590.808C93.5326 588.121 93.3579 586.037 93.0086 584.558L88.3549 598.527C88.858 599.611 89.5498 600.153 90.4302 600.153Z" fill="url(#paint46_linear_122_130)" fill-opacity="0.6"/>
<g opacity="0.6">
<path d="M918.93 -49.9271C920.356 -49.9271 921.436 -49.0174 922.17 -47.198C922.916 -45.3986 923.29 -42.7794 923.29 -39.3405C923.29 -35.9016 922.916 -33.2725 922.17 -31.4531C921.436 -29.6336 920.356 -28.7239 918.93 -28.7239C917.517 -28.7239 916.437 -29.6336 915.69 -31.4531C914.943 -33.2725 914.57 -35.9016 914.57 -39.3405C914.57 -42.7594 914.943 -45.3786 915.69 -47.198C916.437 -49.0174 917.517 -49.9271 918.93 -49.9271ZM915.99 -39.3405C915.99 -36.9013 916.137 -34.9919 916.43 -33.6124L920.87 -46.8981C920.403 -47.8378 919.756 -48.3076 918.93 -48.3076C918.01 -48.3076 917.29 -47.5679 916.77 -46.0884C916.25 -44.6288 915.99 -42.3795 915.99 -39.3405ZM918.93 -30.3734C919.863 -30.3734 920.59 -31.1032 921.11 -32.5627C921.63 -34.0422 921.89 -36.3015 921.89 -39.3405C921.89 -41.9197 921.723 -43.9191 921.39 -45.3386L916.95 -31.9329C917.43 -30.8932 918.09 -30.3734 918.93 -30.3734Z" fill="url(#paint47_linear_122_130)"/>
<path d="M920.13 3.66138H923.07V5.25087H915.45V3.66138H918.85V-13.1932L915.61 -10.2841L915.05 -11.6337L919.05 -15.3525H920.13V3.66138Z" fill="url(#paint48_linear_122_130)"/>
<path d="M918.93 18.6223C920.356 18.6223 921.436 19.532 922.17 21.3514C922.916 23.1508 923.29 25.77 923.29 29.2089C923.29 32.6478 922.916 35.2769 922.17 37.0964C921.436 38.9158 920.356 39.8255 918.93 39.8255C917.517 39.8255 916.437 38.9158 915.69 37.0964C914.943 35.2769 914.57 32.6478 914.57 29.2089C914.57 25.79 914.943 23.1708 915.69 21.3514C916.437 19.532 917.517 18.6223 918.93 18.6223ZM915.99 29.2089C915.99 31.6481 916.137 33.5575 916.43 34.9371L920.87 21.6513C920.403 20.7116 919.756 20.2418 918.93 20.2418C918.01 20.2418 917.29 20.9815 916.77 22.4611C916.25 23.9206 915.99 26.1699 915.99 29.2089ZM918.93 38.176C919.863 38.176 920.59 37.4462 921.11 35.9867C921.63 34.5072 921.89 32.2479 921.89 29.2089C921.89 26.6297 921.723 24.6304 921.39 23.2108L916.95 36.6165C917.43 37.6562 918.09 38.176 918.93 38.176Z" fill="url(#paint49_linear_122_130)"/>
<path d="M920.13 72.2108H923.07V73.8003H915.45V72.2108H918.85V55.3562L915.61 58.2653L915.05 56.9157L919.05 53.1969H920.13V72.2108Z" fill="url(#paint50_linear_122_130)"/>
<path d="M920.13 106.486H923.07V108.075H915.45V106.486H918.85V89.6309L915.61 92.54L915.05 91.1904L919.05 87.4716H920.13V106.486Z" fill="url(#paint51_linear_122_130)"/>
<path d="M918.93 121.446C920.356 121.446 921.436 122.356 922.17 124.176C922.916 125.975 923.29 128.594 923.29 132.033C923.29 135.472 922.916 138.101 922.17 139.92C921.436 141.74 920.356 142.65 918.93 142.65C917.517 142.65 916.437 141.74 915.69 139.92C914.943 138.101 914.57 135.472 914.57 132.033C914.57 128.614 914.943 125.995 915.69 124.176C916.437 122.356 917.517 121.446 918.93 121.446ZM915.99 132.033C915.99 134.472 916.137 136.382 916.43 137.761L920.87 124.475C920.403 123.536 919.756 123.066 918.93 123.066C918.01 123.066 917.29 123.806 916.77 125.285C916.25 126.745 915.99 128.994 915.99 132.033ZM918.93 141C919.863 141 920.59 140.27 921.11 138.811C921.63 137.331 921.89 135.072 921.89 132.033C921.89 129.454 921.723 127.454 921.39 126.035L916.95 139.441C917.43 140.48 918.09 141 918.93 141Z" fill="url(#paint52_linear_122_130)"/>
<path d="M920.13 175.035H923.07V176.624H915.45V175.035H918.85V158.18L915.61 161.089L915.05 159.74L919.05 156.021H920.13V175.035Z" fill="url(#paint53_linear_122_130)"/>
<path d="M918.93 189.996C920.356 189.996 921.436 190.906 922.17 192.725C922.916 194.524 923.29 197.144 923.29 200.582C923.29 204.021 922.916 206.65 922.17 208.47C921.436 210.289 920.356 211.199 918.93 211.199C917.517 211.199 916.437 210.289 915.69 208.47C914.943 206.65 914.57 204.021 914.57 200.582C914.57 197.164 914.943 194.544 915.69 192.725C916.437 190.906 917.517 189.996 918.93 189.996ZM915.99 200.582C915.99 203.022 916.137 204.931 916.43 206.311L920.87 193.025C920.403 192.085 919.756 191.615 918.93 191.615C918.01 191.615 917.29 192.355 916.77 193.835C916.25 195.294 915.99 197.543 915.99 200.582ZM918.93 209.55C919.863 209.55 920.59 208.82 921.11 207.36C921.63 205.881 921.89 203.621 921.89 200.582C921.89 198.003 921.723 196.004 921.39 194.584L916.95 207.99C917.43 209.03 918.09 209.55 918.93 209.55Z" fill="url(#paint54_linear_122_130)"/>
<path d="M918.93 224.271C920.356 224.271 921.436 225.18 922.17 227C922.916 228.799 923.29 231.418 923.29 234.857C923.29 238.296 922.916 240.925 922.17 242.745C921.436 244.564 920.356 245.474 918.93 245.474C917.517 245.474 916.437 244.564 915.69 242.745C914.943 240.925 914.57 238.296 914.57 234.857C914.57 231.438 914.943 228.819 915.69 227C916.437 225.18 917.517 224.271 918.93 224.271ZM915.99 234.857C915.99 237.296 916.137 239.206 916.43 240.585L920.87 227.3C920.403 226.36 919.756 225.89 918.93 225.89C918.01 225.89 917.29 226.63 916.77 228.109C916.25 229.569 915.99 231.818 915.99 234.857ZM918.93 243.824C919.863 243.824 920.59 243.094 921.11 241.635C921.63 240.155 921.89 237.896 921.89 234.857C921.89 232.278 921.723 230.279 921.39 228.859L916.95 242.265C917.43 243.304 918.09 243.824 918.93 243.824Z" fill="url(#paint55_linear_122_130)"/>
<path d="M920.13 277.859H923.07V279.449H915.45V277.859H918.85V261.004L915.61 263.914L915.05 262.564L919.05 258.845H920.13V277.859Z" fill="url(#paint56_linear_122_130)"/>
<path d="M918.93 292.82C920.356 292.82 921.436 293.73 922.17 295.549C922.916 297.349 923.29 299.968 923.29 303.407C923.29 306.845 922.916 309.475 922.17 311.294C921.436 313.113 920.356 314.023 918.93 314.023C917.517 314.023 916.437 313.113 915.69 311.294C914.943 309.475 914.57 306.845 914.57 303.407C914.57 299.988 914.943 297.368 915.69 295.549C916.437 293.73 917.517 292.82 918.93 292.82ZM915.99 303.407C915.99 305.846 916.137 307.755 916.43 309.135L920.87 295.849C920.403 294.909 919.756 294.439 918.93 294.439C918.01 294.439 917.29 295.179 916.77 296.659C916.25 298.118 915.99 300.368 915.99 303.407ZM918.93 312.374C919.863 312.374 920.59 311.644 921.11 310.184C921.63 308.705 921.89 306.446 921.89 303.407C921.89 300.827 921.723 298.828 921.39 297.408L916.95 310.814C917.43 311.854 918.09 312.374 918.93 312.374Z" fill="url(#paint57_linear_122_130)"/>
<path d="M920.13 346.408H923.07V347.998H915.45V346.408H918.85V329.554L915.61 332.463L915.05 331.113L919.05 327.395H920.13V346.408Z" fill="url(#paint58_linear_122_130)"/>
<path d="M920.13 380.683H923.07V382.273H915.45V380.683H918.85V363.829L915.61 366.738L915.05 365.388L919.05 361.669H920.13V380.683Z" fill="url(#paint59_linear_122_130)"/>
<path d="M956.07 18.6223C957.497 18.6223 958.577 19.532 959.31 21.3514C960.057 23.1508 960.43 25.77 960.43 29.2089C960.43 32.6478 960.057 35.2769 959.31 37.0964C958.577 38.9158 957.497 39.8255 956.07 39.8255C954.657 39.8255 953.577 38.9158 952.83 37.0964C952.084 35.2769 951.71 32.6478 951.71 29.2089C951.71 25.79 952.084 23.1708 952.83 21.3514C953.577 19.532 954.657 18.6223 956.07 18.6223ZM953.13 29.2089C953.13 31.6481 953.277 33.5575 953.57 34.9371L958.01 21.6513C957.543 20.7116 956.897 20.2418 956.07 20.2418C955.15 20.2418 954.43 20.9815 953.91 22.4611C953.39 23.9206 953.13 26.1699 953.13 29.2089ZM956.07 38.176C957.003 38.176 957.73 37.4462 958.25 35.9867C958.77 34.5072 959.03 32.2479 959.03 29.2089C959.03 26.6297 958.863 24.6304 958.53 23.2108L954.09 36.6165C954.57 37.6562 955.23 38.176 956.07 38.176Z" fill="url(#paint60_linear_122_130)"/>
<path d="M957.27 72.2108H960.21V73.8003H952.59V72.2108H955.99V55.3562L952.75 58.2653L952.19 56.9157L956.19 53.1969H957.27V72.2108Z" fill="url(#paint61_linear_122_130)"/>
<path d="M956.07 87.1717C957.497 87.1717 958.577 88.0814 959.31 89.9008C960.057 91.7003 960.43 94.3194 960.43 97.7583C960.43 101.197 960.057 103.826 959.31 105.646C958.577 107.465 957.497 108.375 956.07 108.375C954.657 108.375 953.577 107.465 952.83 105.646C952.084 103.826 951.71 101.197 951.71 97.7583C951.71 94.3394 952.084 91.7203 952.83 89.9008C953.577 88.0814 954.657 87.1717 956.07 87.1717ZM953.13 97.7583C953.13 100.198 953.277 102.107 953.57 103.486L958.01 90.2007C957.543 89.261 956.897 88.7912 956.07 88.7912C955.15 88.7912 954.43 89.5309 953.91 91.0105C953.39 92.47 953.13 94.7193 953.13 97.7583ZM956.07 106.725C957.003 106.725 957.73 105.996 958.25 104.536C958.77 103.057 959.03 100.797 959.03 97.7583C959.03 95.1791 958.863 93.1798 958.53 91.7602L954.09 105.166C954.57 106.206 955.23 106.725 956.07 106.725Z" fill="url(#paint62_linear_122_130)"/>
<path d="M956.07 121.446C957.497 121.446 958.577 122.356 959.31 124.176C960.057 125.975 960.43 128.594 960.43 132.033C960.43 135.472 960.057 138.101 959.31 139.92C958.577 141.74 957.497 142.65 956.07 142.65C954.657 142.65 953.577 141.74 952.83 139.92C952.084 138.101 951.71 135.472 951.71 132.033C951.71 128.614 952.084 125.995 952.83 124.176C953.577 122.356 954.657 121.446 956.07 121.446ZM953.13 132.033C953.13 134.472 953.277 136.382 953.57 137.761L958.01 124.475C957.543 123.536 956.897 123.066 956.07 123.066C955.15 123.066 954.43 123.806 953.91 125.285C953.39 126.745 953.13 128.994 953.13 132.033ZM956.07 141C957.003 141 957.73 140.27 958.25 138.811C958.77 137.331 959.03 135.072 959.03 132.033C959.03 129.454 958.863 127.454 958.53 126.035L954.09 139.441C954.57 140.48 955.23 141 956.07 141Z" fill="url(#paint63_linear_122_130)"/>
<path d="M957.27 175.035H960.21V176.624H952.59V175.035H955.99V158.18L952.75 161.089L952.19 159.74L956.19 156.021H957.27V175.035Z" fill="url(#paint64_linear_122_130)"/>
<path d="M956.07 189.996C957.497 189.996 958.577 190.906 959.31 192.725C960.057 194.524 960.43 197.144 960.43 200.582C960.43 204.021 960.057 206.65 959.31 208.47C958.577 210.289 957.497 211.199 956.07 211.199C954.657 211.199 953.577 210.289 952.83 208.47C952.084 206.65 951.71 204.021 951.71 200.582C951.71 197.164 952.084 194.544 952.83 192.725C953.577 190.906 954.657 189.996 956.07 189.996ZM953.13 200.582C953.13 203.022 953.277 204.931 953.57 206.311L958.01 193.025C957.543 192.085 956.897 191.615 956.07 191.615C955.15 191.615 954.43 192.355 953.91 193.835C953.39 195.294 953.13 197.543 953.13 200.582ZM956.07 209.55C957.003 209.55 957.73 208.82 958.25 207.36C958.77 205.881 959.03 203.621 959.03 200.582C959.03 198.003 958.863 196.004 958.53 194.584L954.09 207.99C954.57 209.03 955.23 209.55 956.07 209.55Z" fill="url(#paint65_linear_122_130)"/>
<path d="M957.27 243.584H960.21V245.174H952.59V243.584H955.99V226.73L952.75 229.639L952.19 228.289L956.19 224.57H957.27V243.584Z" fill="url(#paint66_linear_122_130)"/>
<path d="M956.07 258.545C957.497 258.545 958.577 259.455 959.31 261.274C960.057 263.074 960.43 265.693 960.43 269.132C960.43 272.571 960.057 275.2 959.31 277.019C958.577 278.839 957.497 279.748 956.07 279.748C954.657 279.748 953.577 278.839 952.83 277.019C952.084 275.2 951.71 272.571 951.71 269.132C951.71 265.713 952.084 263.094 952.83 261.274C953.577 259.455 954.657 258.545 956.07 258.545ZM953.13 269.132C953.13 271.571 953.277 273.48 953.57 274.86L958.01 261.574C957.543 260.635 956.897 260.165 956.07 260.165C955.15 260.165 954.43 260.905 953.91 262.384C953.39 263.844 953.13 266.093 953.13 269.132ZM956.07 278.099C957.003 278.099 957.73 277.369 958.25 275.91C958.77 274.43 959.03 272.171 959.03 269.132C959.03 266.553 958.863 264.553 958.53 263.134L954.09 276.539C954.57 277.579 955.23 278.099 956.07 278.099Z" fill="url(#paint67_linear_122_130)"/>
<path d="M956.07 292.82C957.497 292.82 958.577 293.73 959.31 295.549C960.057 297.349 960.43 299.968 960.43 303.407C960.43 306.845 960.057 309.475 959.31 311.294C958.577 313.113 957.497 314.023 956.07 314.023C954.657 314.023 953.577 313.113 952.83 311.294C952.084 309.475 951.71 306.845 951.71 303.407C951.71 299.988 952.084 297.368 952.83 295.549C953.577 293.73 954.657 292.82 956.07 292.82ZM953.13 303.407C953.13 305.846 953.277 307.755 953.57 309.135L958.01 295.849C957.543 294.909 956.897 294.439 956.07 294.439C955.15 294.439 954.43 295.179 953.91 296.659C953.39 298.118 953.13 300.368 953.13 303.407ZM956.07 312.374C957.003 312.374 957.73 311.644 958.25 310.184C958.77 308.705 959.03 306.446 959.03 303.407C959.03 300.827 958.863 298.828 958.53 297.408L954.09 310.814C954.57 311.854 955.23 312.374 956.07 312.374Z" fill="url(#paint68_linear_122_130)"/>
<path d="M957.27 346.408H960.21V347.998H952.59V346.408H955.99V329.554L952.75 332.463L952.19 331.113L956.19 327.395H957.27V346.408Z" fill="url(#paint69_linear_122_130)"/>
<path d="M956.07 361.369C957.497 361.369 958.577 362.279 959.31 364.099C960.057 365.898 960.43 368.517 960.43 371.956C960.43 375.395 960.057 378.024 959.31 379.843C958.577 381.663 957.497 382.573 956.07 382.573C954.657 382.573 953.577 381.663 952.83 379.843C952.084 378.024 951.71 375.395 951.71 371.956C951.71 368.537 952.084 365.918 952.83 364.099C953.577 362.279 954.657 361.369 956.07 361.369ZM953.13 371.956C953.13 374.395 953.277 376.305 953.57 377.684L958.01 364.398C957.543 363.459 956.897 362.989 956.07 362.989C955.15 362.989 954.43 363.729 953.91 365.208C953.39 366.668 953.13 368.917 953.13 371.956ZM956.07 380.923C957.003 380.923 957.73 380.193 958.25 378.734C958.77 377.254 959.03 374.995 959.03 371.956C959.03 369.377 958.863 367.377 958.53 365.958L954.09 379.364C954.57 380.403 955.23 380.923 956.07 380.923Z" fill="url(#paint70_linear_122_130)"/>
<path d="M957.27 414.958H960.21V416.547H952.59V414.958H955.99V398.103L952.75 401.012L952.19 399.663L956.19 395.944H957.27V414.958Z" fill="url(#paint71_linear_122_130)"/>
<path d="M957.27 449.233H960.21V450.822H952.59V449.233H955.99V432.378L952.75 435.287L952.19 433.938L956.19 430.219H957.27V449.233Z" fill="url(#paint72_linear_122_130)"/>
<path d="M900.36 52.897C901.786 52.897 902.866 53.8067 903.599 55.6261C904.346 57.4256 904.719 60.0447 904.719 63.4836C904.719 66.9225 904.346 69.5517 903.599 71.3711C902.866 73.1905 901.786 74.1002 900.36 74.1002C898.946 74.1002 897.867 73.1905 897.12 71.3711C896.373 69.5517 896 66.9225 896 63.4836C896 60.0647 896.373 57.4455 897.12 55.6261C897.867 53.8067 898.946 52.897 900.36 52.897ZM897.42 63.4836C897.42 65.9228 897.567 67.8322 897.86 69.2118L902.3 55.926C901.833 54.9863 901.186 54.5165 900.36 54.5165C899.44 54.5165 898.72 55.2562 898.2 56.7358C897.68 58.1953 897.42 60.4446 897.42 63.4836ZM900.36 72.4507C901.293 72.4507 902.02 71.7209 902.54 70.2614C903.06 68.7819 903.319 66.5226 903.319 63.4836C903.319 60.9044 903.153 58.9051 902.82 57.4855L898.38 70.8912C898.86 71.9309 899.52 72.4507 900.36 72.4507Z" fill="url(#paint73_linear_122_130)"/>
<path d="M900.36 87.1717C901.786 87.1717 902.866 88.0814 903.599 89.9008C904.346 91.7003 904.719 94.3194 904.719 97.7583C904.719 101.197 904.346 103.826 903.599 105.646C902.866 107.465 901.786 108.375 900.36 108.375C898.946 108.375 897.867 107.465 897.12 105.646C896.373 103.826 896 101.197 896 97.7583C896 94.3394 896.373 91.7203 897.12 89.9008C897.867 88.0814 898.946 87.1717 900.36 87.1717ZM897.42 97.7583C897.42 100.198 897.567 102.107 897.86 103.486L902.3 90.2007C901.833 89.261 901.186 88.7912 900.36 88.7912C899.44 88.7912 898.72 89.5309 898.2 91.0105C897.68 92.47 897.42 94.7193 897.42 97.7583ZM900.36 106.725C901.293 106.725 902.02 105.996 902.54 104.536C903.06 103.057 903.319 100.797 903.319 97.7583C903.319 95.1791 903.153 93.1798 902.82 91.7602L898.38 105.166C898.86 106.206 899.52 106.725 900.36 106.725Z" fill="url(#paint74_linear_122_130)"/>
<path d="M901.56 140.76H904.499V142.35H896.88V140.76H900.28V123.906L897.04 126.815L896.48 125.465L900.48 121.746H901.56V140.76Z" fill="url(#paint75_linear_122_130)"/>
<path d="M900.36 155.721C901.786 155.721 902.866 156.631 903.599 158.45C904.346 160.25 904.719 162.869 904.719 166.308C904.719 169.747 904.346 172.376 903.599 174.195C902.866 176.015 901.786 176.924 900.36 176.924C898.946 176.924 897.867 176.015 897.12 174.195C896.373 172.376 896 169.747 896 166.308C896 162.889 896.373 160.27 897.12 158.45C897.867 156.631 898.946 155.721 900.36 155.721ZM897.42 166.308C897.42 168.747 897.567 170.656 897.86 172.036L902.3 158.75C901.833 157.81 901.186 157.341 900.36 157.341C899.44 157.341 898.72 158.08 898.2 159.56C897.68 161.019 897.42 163.269 897.42 166.308ZM900.36 175.275C901.293 175.275 902.02 174.545 902.54 173.086C903.06 171.606 903.319 169.347 903.319 166.308C903.319 163.729 903.153 161.729 902.82 160.31L898.38 173.715C898.86 174.755 899.52 175.275 900.36 175.275Z" fill="url(#paint76_linear_122_130)"/>
<path d="M901.56 209.31H904.499V210.899H896.88V209.31H900.28V192.455L897.04 195.364L896.48 194.015L900.48 190.296H901.56V209.31Z" fill="url(#paint77_linear_122_130)"/>
<path d="M901.56 243.584H904.499V245.174H896.88V243.584H900.28V226.73L897.04 229.639L896.48 228.289L900.48 224.57H901.56V243.584Z" fill="url(#paint78_linear_122_130)"/>
<path d="M938.7 3.66138H941.64V5.25087H934.02V3.66138H937.42V-13.1932L934.18 -10.2841L933.62 -11.6337L937.62 -15.3525H938.7V3.66138Z" fill="url(#paint79_linear_122_130)"/>
<path d="M937.5 18.6223C938.927 18.6223 940.006 19.532 940.74 21.3514C941.486 23.1508 941.86 25.77 941.86 29.2089C941.86 32.6478 941.486 35.2769 940.74 37.0964C940.006 38.9158 938.927 39.8255 937.5 39.8255C936.087 39.8255 935.007 38.9158 934.26 37.0964C933.514 35.2769 933.14 32.6478 933.14 29.2089C933.14 25.79 933.514 23.1708 934.26 21.3514C935.007 19.532 936.087 18.6223 937.5 18.6223ZM934.56 29.2089C934.56 31.6481 934.707 33.5575 935 34.9371L939.44 21.6513C938.973 20.7116 938.327 20.2418 937.5 20.2418C936.58 20.2418 935.86 20.9815 935.34 22.4611C934.82 23.9206 934.56 26.1699 934.56 29.2089ZM937.5 38.176C938.433 38.176 939.16 37.4462 939.68 35.9867C940.2 34.5072 940.46 32.2479 940.46 29.2089C940.46 26.6297 940.293 24.6304 939.96 23.2108L935.52 36.6165C936 37.6562 936.66 38.176 937.5 38.176Z" fill="url(#paint80_linear_122_130)"/>
<path d="M938.7 72.2108H941.64V73.8003H934.02V72.2108H937.42V55.3562L934.18 58.2653L933.62 56.9157L937.62 53.1969H938.7V72.2108Z" fill="url(#paint81_linear_122_130)"/>
<path d="M938.7 106.486H941.64V108.075H934.02V106.486H937.42V89.6309L934.18 92.54L933.62 91.1904L937.62 87.4716H938.7V106.486Z" fill="url(#paint82_linear_122_130)"/>
<path d="M937.5 121.446C938.927 121.446 940.006 122.356 940.74 124.176C941.486 125.975 941.86 128.594 941.86 132.033C941.86 135.472 941.486 138.101 940.74 139.92C940.006 141.74 938.927 142.65 937.5 142.65C936.087 142.65 935.007 141.74 934.26 139.92C933.514 138.101 933.14 135.472 933.14 132.033C933.14 128.614 933.514 125.995 934.26 124.176C935.007 122.356 936.087 121.446 937.5 121.446ZM934.56 132.033C934.56 134.472 934.707 136.382 935 137.761L939.44 124.475C938.973 123.536 938.327 123.066 937.5 123.066C936.58 123.066 935.86 123.806 935.34 125.285C934.82 126.745 934.56 128.994 934.56 132.033ZM937.5 141C938.433 141 939.16 140.27 939.68 138.811C940.2 137.331 940.46 135.072 940.46 132.033C940.46 129.454 940.293 127.454 939.96 126.035L935.52 139.441C936 140.48 936.66 141 937.5 141Z" fill="url(#paint83_linear_122_130)"/>
<path d="M938.7 175.035H941.64V176.624H934.02V175.035H937.42V158.18L934.18 161.089L933.62 159.74L937.62 156.021H938.7V175.035Z" fill="url(#paint84_linear_122_130)"/>
<path d="M938.7 209.31H941.64V210.899H934.02V209.31H937.42V192.455L934.18 195.364L933.62 194.015L937.62 190.296H938.7V209.31Z" fill="url(#paint85_linear_122_130)"/>
<path d="M937.5 224.271C938.927 224.271 940.006 225.18 940.74 227C941.486 228.799 941.86 231.418 941.86 234.857C941.86 238.296 941.486 240.925 940.74 242.745C940.006 244.564 938.927 245.474 937.5 245.474C936.087 245.474 935.007 244.564 934.26 242.745C933.514 240.925 933.14 238.296 933.14 234.857C933.14 231.438 933.514 228.819 934.26 227C935.007 225.18 936.087 224.271 937.5 224.271ZM934.56 234.857C934.56 237.296 934.707 239.206 935 240.585L939.44 227.3C938.973 226.36 938.327 225.89 937.5 225.89C936.58 225.89 935.86 226.63 935.34 228.109C934.82 229.569 934.56 231.818 934.56 234.857ZM937.5 243.824C938.433 243.824 939.16 243.094 939.68 241.635C940.2 240.155 940.46 237.896 940.46 234.857C940.46 232.278 940.293 230.279 939.96 228.859L935.52 242.265C936 243.304 936.66 243.824 937.5 243.824Z" fill="url(#paint86_linear_122_130)"/>
<path d="M938.7 277.859H941.64V279.449H934.02V277.859H937.42V261.004L934.18 263.914L933.62 262.564L937.62 258.845H938.7V277.859Z" fill="url(#paint87_linear_122_130)"/>
<path d="M937.5 292.82C938.927 292.82 940.006 293.73 940.74 295.549C941.486 297.349 941.86 299.968 941.86 303.407C941.86 306.845 941.486 309.475 940.74 311.294C940.006 313.113 938.927 314.023 937.5 314.023C936.087 314.023 935.007 313.113 934.26 311.294C933.514 309.475 933.14 306.845 933.14 303.407C933.14 299.988 933.514 297.368 934.26 295.549C935.007 293.73 936.087 292.82 937.5 292.82ZM934.56 303.407C934.56 305.846 934.707 307.755 935 309.135L939.44 295.849C938.973 294.909 938.327 294.439 937.5 294.439C936.58 294.439 935.86 295.179 935.34 296.659C934.82 298.118 934.56 300.368 934.56 303.407ZM937.5 312.374C938.433 312.374 939.16 311.644 939.68 310.184C940.2 308.705 940.46 306.446 940.46 303.407C940.46 300.827 940.293 298.828 939.96 297.408L935.52 310.814C936 311.854 936.66 312.374 937.5 312.374Z" fill="url(#paint88_linear_122_130)"/>
<path d="M974.64 -15.6524C976.067 -15.6524 977.147 -14.7427 977.88 -12.9233C978.627 -11.1239 979 -8.50471 979 -5.06582C979 -1.62692 978.627 1.00224 977.88 2.82165C977.147 4.64107 976.067 5.55078 974.64 5.55078C973.227 5.55078 972.147 4.64107 971.401 2.82165C970.654 1.00224 970.281 -1.62692 970.281 -5.06582C970.281 -8.48472 970.654 -11.1039 971.401 -12.9233C972.147 -14.7427 973.227 -15.6524 974.64 -15.6524ZM971.7 -5.06582C971.7 -2.6266 971.847 -0.717208 972.14 0.662349L976.58 -12.6234C976.114 -13.5631 975.467 -14.0329 974.64 -14.0329C973.72 -14.0329 973 -13.2932 972.48 -11.8136C971.96 -10.3541 971.7 -8.10484 971.7 -5.06582ZM974.64 3.90131C975.574 3.90131 976.3 3.17154 976.82 1.71201C977.34 0.232486 977.6 -2.02679 977.6 -5.06582C977.6 -7.64499 977.433 -9.64435 977.1 -11.0639L972.66 2.3418C973.14 3.38147 973.8 3.90131 974.64 3.90131Z" fill="url(#paint89_linear_122_130)"/>
<path d="M975.84 37.9361H978.78V39.5256H971.161V37.9361H974.56V21.0815L971.321 23.9906L970.761 22.641L974.76 18.9222H975.84V37.9361Z" fill="url(#paint90_linear_122_130)"/>
<path d="M975.84 72.2108H978.78V73.8003H971.161V72.2108H974.56V55.3562L971.321 58.2653L970.761 56.9157L974.76 53.1969H975.84V72.2108Z" fill="url(#paint91_linear_122_130)"/>
<path d="M974.64 87.1717C976.067 87.1717 977.147 88.0814 977.88 89.9008C978.627 91.7003 979 94.3194 979 97.7583C979 101.197 978.627 103.826 977.88 105.646C977.147 107.465 976.067 108.375 974.64 108.375C973.227 108.375 972.147 107.465 971.401 105.646C970.654 103.826 970.281 101.197 970.281 97.7583C970.281 94.3394 970.654 91.7203 971.401 89.9008C972.147 88.0814 973.227 87.1717 974.64 87.1717ZM971.7 97.7583C971.7 100.198 971.847 102.107 972.14 103.486L976.58 90.2007C976.114 89.261 975.467 88.7912 974.64 88.7912C973.72 88.7912 973 89.5309 972.48 91.0105C971.96 92.47 971.7 94.7193 971.7 97.7583ZM974.64 106.725C975.574 106.725 976.3 105.996 976.82 104.536C977.34 103.057 977.6 100.797 977.6 97.7583C977.6 95.1791 977.433 93.1798 977.1 91.7602L972.66 105.166C973.14 106.206 973.8 106.725 974.64 106.725Z" fill="url(#paint92_linear_122_130)"/>
<path d="M974.64 121.446C976.067 121.446 977.147 122.356 977.88 124.176C978.627 125.975 979 128.594 979 132.033C979 135.472 978.627 138.101 977.88 139.92C977.147 141.74 976.067 142.65 974.64 142.65C973.227 142.65 972.147 141.74 971.401 139.92C970.654 138.101 970.281 135.472 970.281 132.033C970.281 128.614 970.654 125.995 971.401 124.176C972.147 122.356 973.227 121.446 974.64 121.446ZM971.7 132.033C971.7 134.472 971.847 136.382 972.14 137.761L976.58 124.475C976.114 123.536 975.467 123.066 974.64 123.066C973.72 123.066 973 123.806 972.48 125.285C971.96 126.745 971.7 128.994 971.7 132.033ZM974.64 141C975.574 141 976.3 140.27 976.82 138.811C977.34 137.331 977.6 135.072 977.6 132.033C977.6 129.454 977.433 127.454 977.1 126.035L972.66 139.441C973.14 140.48 973.8 141 974.64 141Z" fill="url(#paint93_linear_122_130)"/>
</g>
</g>
<defs>
<filter id="filter0_f_122_130" x="-559.19" y="-880.19" width="2141.38" height="1853.01" filterUnits="userSpaceOnUse" color-interpolation-filters="sRGB">
<feFlood flood-opacity="0" result="BackgroundImageFix"/>
<feBlend mode="normal" in="SourceGraphic" in2="BackgroundImageFix" result="shape"/>
<feGaussianBlur stdDeviation="200.095" result="effect1_foregroundBlur_122_130"/>
</filter>
<linearGradient id="paint0_linear_122_130" x1="51.5" y1="401.198" x2="51.5" y2="869.438" gradientUnits="userSpaceOnUse">
<stop stop-color="#F7DD43"/>
<stop offset="1" stop-color="#F7DD43" stop-opacity="0"/>
</linearGradient>
<linearGradient id="paint1_linear_122_130" x1="51.5" y1="401.198" x2="51.5" y2="869.438" gradientUnits="userSpaceOnUse">
<stop stop-color="#F7DD43"/>
<stop offset="1" stop-color="#F7DD43" stop-opacity="0"/>
</linearGradient>
<linearGradient id="paint2_linear_122_130" x1="51.5" y1="401.198" x2="51.5" y2="869.438" gradientUnits="userSpaceOnUse">
<stop stop-color="#F7DD43"/>
<stop offset="1" stop-color="#F7DD43" stop-opacity="0"/>
</linearGradient>
<linearGradient id="paint3_linear_122_130" x1="51.5" y1="401.198" x2="51.5" y2="869.438" gradientUnits="userSpaceOnUse">
<stop stop-color="#F7DD43"/>
<stop offset="1" stop-color="#F7DD43" stop-opacity="0"/>
</linearGradient>
<linearGradient id="paint4_linear_122_130" x1="51.5" y1="401.198" x2="51.5" y2="869.438" gradientUnits="userSpaceOnUse">
<stop stop-color="#F7DD43"/>
<stop offset="1" stop-color="#F7DD43" stop-opacity="0"/>
</linearGradient>
<linearGradient id="paint5_linear_122_130" x1="51.5" y1="401.198" x2="51.5" y2="869.438" gradientUnits="userSpaceOnUse">
<stop stop-color="#F7DD43"/>
<stop offset="1" stop-color="#F7DD43" stop-opacity="0"/>
</linearGradient>
<linearGradient id="paint6_linear_122_130" x1="51.5" y1="401.198" x2="51.5" y2="869.438" gradientUnits="userSpaceOnUse">
<stop stop-color="#F7DD43"/>
<stop offset="1" stop-color="#F7DD43" stop-opacity="0"/>
</linearGradient>
<linearGradient id="paint7_linear_122_130" x1="51.5" y1="401.198" x2="51.5" y2="869.438" gradientUnits="userSpaceOnUse">
<stop stop-color="#F7DD43"/>
<stop offset="1" stop-color="#F7DD43" stop-opacity="0"/>
</linearGradient>
<linearGradient id="paint8_linear_122_130" x1="51.5" y1="401.198" x2="51.5" y2="869.438" gradientUnits="userSpaceOnUse">
<stop stop-color="#F7DD43"/>
<stop offset="1" stop-color="#F7DD43" stop-opacity="0"/>
</linearGradient>
<linearGradient id="paint9_linear_122_130" x1="51.5" y1="401.198" x2="51.5" y2="869.438" gradientUnits="userSpaceOnUse">
<stop stop-color="#F7DD43"/>
<stop offset="1" stop-color="#F7DD43" stop-opacity="0"/>
</linearGradient>
<linearGradient id="paint10_linear_122_130" x1="51.5" y1="401.198" x2="51.5" y2="869.438" gradientUnits="userSpaceOnUse">
<stop stop-color="#F7DD43"/>
<stop offset="1" stop-color="#F7DD43" stop-opacity="0"/>
</linearGradient>
<linearGradient id="paint11_linear_122_130" x1="51.5" y1="401.198" x2="51.5" y2="869.438" gradientUnits="userSpaceOnUse">
<stop stop-color="#F7DD43"/>
<stop offset="1" stop-color="#F7DD43" stop-opacity="0"/>
</linearGradient>
<linearGradient id="paint12_linear_122_130" x1="51.5" y1="401.198" x2="51.5" y2="869.438" gradientUnits="userSpaceOnUse">
<stop stop-color="#F7DD43"/>
<stop offset="1" stop-color="#F7DD43" stop-opacity="0"/>
</linearGradient>
<linearGradient id="paint13_linear_122_130" x1="51.5" y1="401.198" x2="51.5" y2="869.438" gradientUnits="userSpaceOnUse">
<stop stop-color="#F7DD43"/>
<stop offset="1" stop-color="#F7DD43" stop-opacity="0"/>
</linearGradient>
<linearGradient id="paint14_linear_122_130" x1="51.5" y1="401.198" x2="51.5" y2="869.438" gradientUnits="userSpaceOnUse">
<stop stop-color="#F7DD43"/>
<stop offset="1" stop-color="#F7DD43" stop-opacity="0"/>
</linearGradient>
<linearGradient id="paint15_linear_122_130" x1="51.5" y1="401.198" x2="51.5" y2="869.438" gradientUnits="userSpaceOnUse">
<stop stop-color="#F7DD43"/>
<stop offset="1" stop-color="#F7DD43" stop-opacity="0"/>
</linearGradient>
<linearGradient id="paint16_linear_122_130" x1="51.5" y1="401.198" x2="51.5" y2="869.438" gradientUnits="userSpaceOnUse">
<stop stop-color="#F7DD43"/>
<stop offset="1" stop-color="#F7DD43" stop-opacity="0"/>
</linearGradient>
<linearGradient id="paint17_linear_122_130" x1="51.5" y1="401.198" x2="51.5" y2="869.438" gradientUnits="userSpaceOnUse">
<stop stop-color="#F7DD43"/>
<stop offset="1" stop-color="#F7DD43" stop-opacity="0"/>
</linearGradient>
<linearGradient id="paint18_linear_122_130" x1="51.5" y1="401.198" x2="51.5" y2="869.438" gradientUnits="userSpaceOnUse">
<stop stop-color="#F7DD43"/>
<stop offset="1" stop-color="#F7DD43" stop-opacity="0"/>
</linearGradient>
<linearGradient id="paint19_linear_122_130" x1="51.5" y1="401.198" x2="51.5" y2="869.438" gradientUnits="userSpaceOnUse">
<stop stop-color="#F7DD43"/>
<stop offset="1" stop-color="#F7DD43" stop-opacity="0"/>
</linearGradient>
<linearGradient id="paint20_linear_122_130" x1="51.5" y1="401.198" x2="51.5" y2="869.438" gradientUnits="userSpaceOnUse">
<stop stop-color="#F7DD43"/>
<stop offset="1" stop-color="#F7DD43" stop-opacity="0"/>
</linearGradient>
<linearGradient id="paint21_linear_122_130" x1="51.5" y1="401.198" x2="51.5" y2="869.438" gradientUnits="userSpaceOnUse">
<stop stop-color="#F7DD43"/>
<stop offset="1" stop-color="#F7DD43" stop-opacity="0"/>
</linearGradient>
<linearGradient id="paint22_linear_122_130" x1="51.5" y1="401.198" x2="51.5" y2="869.438" gradientUnits="userSpaceOnUse">
<stop stop-color="#F7DD43"/>
<stop offset="1" stop-color="#F7DD43" stop-opacity="0"/>
</linearGradient>
<linearGradient id="paint23_linear_122_130" x1="51.5" y1="401.198" x2="51.5" y2="869.438" gradientUnits="userSpaceOnUse">
<stop stop-color="#F7DD43"/>
<stop offset="1" stop-color="#F7DD43" stop-opacity="0"/>
</linearGradient>
<linearGradient id="paint24_linear_122_130" x1="51.5" y1="401.198" x2="51.5" y2="869.438" gradientUnits="userSpaceOnUse">
<stop stop-color="#F7DD43"/>
<stop offset="1" stop-color="#F7DD43" stop-opacity="0"/>
</linearGradient>
<linearGradient id="paint25_linear_122_130" x1="51.5" y1="401.198" x2="51.5" y2="869.438" gradientUnits="userSpaceOnUse">
<stop stop-color="#F7DD43"/>
<stop offset="1" stop-color="#F7DD43" stop-opacity="0"/>
</linearGradient>
<linearGradient id="paint26_linear_122_130" x1="51.5" y1="401.198" x2="51.5" y2="869.438" gradientUnits="userSpaceOnUse">
<stop stop-color="#F7DD43"/>
<stop offset="1" stop-color="#F7DD43" stop-opacity="0"/>
</linearGradient>
<linearGradient id="paint27_linear_122_130" x1="51.5" y1="401.198" x2="51.5" y2="869.438" gradientUnits="userSpaceOnUse">
<stop stop-color="#F7DD43"/>
<stop offset="1" stop-color="#F7DD43" stop-opacity="0"/>
</linearGradient>
<linearGradient id="paint28_linear_122_130" x1="51.5" y1="401.198" x2="51.5" y2="869.438" gradientUnits="userSpaceOnUse">
<stop stop-color="#F7DD43"/>
<stop offset="1" stop-color="#F7DD43" stop-opacity="0"/>
</linearGradient>
<linearGradient id="paint29_linear_122_130" x1="51.5" y1="401.198" x2="51.5" y2="869.438" gradientUnits="userSpaceOnUse">
<stop stop-color="#F7DD43"/>
<stop offset="1" stop-color="#F7DD43" stop-opacity="0"/>
</linearGradient>
<linearGradient id="paint30_linear_122_130" x1="51.5" y1="401.198" x2="51.5" y2="869.438" gradientUnits="userSpaceOnUse">
<stop stop-color="#F7DD43"/>
<stop offset="1" stop-color="#F7DD43" stop-opacity="0"/>
</linearGradient>
<linearGradient id="paint31_linear_122_130" x1="51.5" y1="401.198" x2="51.5" y2="869.438" gradientUnits="userSpaceOnUse">
<stop stop-color="#F7DD43"/>
<stop offset="1" stop-color="#F7DD43" stop-opacity="0"/>
</linearGradient>
<linearGradient id="paint32_linear_122_130" x1="51.5" y1="401.198" x2="51.5" y2="869.438" gradientUnits="userSpaceOnUse">
<stop stop-color="#F7DD43"/>
<stop offset="1" stop-color="#F7DD43" stop-opacity="0"/>
</linearGradient>
<linearGradient id="paint33_linear_122_130" x1="51.5" y1="401.198" x2="51.5" y2="869.438" gradientUnits="userSpaceOnUse">
<stop stop-color="#F7DD43"/>
<stop offset="1" stop-color="#F7DD43" stop-opacity="0"/>
</linearGradient>
<linearGradient id="paint34_linear_122_130" x1="51.5" y1="401.198" x2="51.5" y2="869.438" gradientUnits="userSpaceOnUse">
<stop stop-color="#F7DD43"/>
<stop offset="1" stop-color="#F7DD43" stop-opacity="0"/>
</linearGradient>
<linearGradient id="paint35_linear_122_130" x1="51.5" y1="401.198" x2="51.5" y2="869.438" gradientUnits="userSpaceOnUse">
<stop stop-color="#F7DD43"/>
<stop offset="1" stop-color="#F7DD43" stop-opacity="0"/>
</linearGradient>
<linearGradient id="paint36_linear_122_130" x1="51.5" y1="401.198" x2="51.5" y2="869.438" gradientUnits="userSpaceOnUse">
<stop stop-color="#F7DD43"/>
<stop offset="1" stop-color="#F7DD43" stop-opacity="0"/>
</linearGradient>
<linearGradient id="paint37_linear_122_130" x1="51.5" y1="401.198" x2="51.5" y2="869.438" gradientUnits="userSpaceOnUse">
<stop stop-color="#F7DD43"/>
<stop offset="1" stop-color="#F7DD43" stop-opacity="0"/>
</linearGradient>
<linearGradient id="paint38_linear_122_130" x1="51.5" y1="401.198" x2="51.5" y2="869.438" gradientUnits="userSpaceOnUse">
<stop stop-color="#F7DD43"/>
<stop offset="1" stop-color="#F7DD43" stop-opacity="0"/>
</linearGradient>
<linearGradient id="paint39_linear_122_130" x1="51.5" y1="401.198" x2="51.5" y2="869.438" gradientUnits="userSpaceOnUse">
<stop stop-color="#F7DD43"/>
<stop offset="1" stop-color="#F7DD43" stop-opacity="0"/>
</linearGradient>
<linearGradient id="paint40_linear_122_130" x1="51.5" y1="401.198" x2="51.5" y2="869.438" gradientUnits="userSpaceOnUse">
<stop stop-color="#F7DD43"/>
<stop offset="1" stop-color="#F7DD43" stop-opacity="0"/>
</linearGradient>
<linearGradient id="paint41_linear_122_130" x1="51.5" y1="401.198" x2="51.5" y2="869.438" gradientUnits="userSpaceOnUse">
<stop stop-color="#F7DD43"/>
<stop offset="1" stop-color="#F7DD43" stop-opacity="0"/>
</linearGradient>
<linearGradient id="paint42_linear_122_130" x1="51.5" y1="401.198" x2="51.5" y2="869.438" gradientUnits="userSpaceOnUse">
<stop stop-color="#F7DD43"/>
<stop offset="1" stop-color="#F7DD43" stop-opacity="0"/>
</linearGradient>
<linearGradient id="paint43_linear_122_130" x1="51.5" y1="401.198" x2="51.5" y2="869.438" gradientUnits="userSpaceOnUse">
<stop stop-color="#F7DD43"/>
<stop offset="1" stop-color="#F7DD43" stop-opacity="0"/>
</linearGradient>
<linearGradient id="paint44_linear_122_130" x1="51.5" y1="401.198" x2="51.5" y2="869.438" gradientUnits="userSpaceOnUse">
<stop stop-color="#F7DD43"/>
<stop offset="1" stop-color="#F7DD43" stop-opacity="0"/>
</linearGradient>
<linearGradient id="paint45_linear_122_130" x1="51.5" y1="401.198" x2="51.5" y2="869.438" gradientUnits="userSpaceOnUse">
<stop stop-color="#F7DD43"/>
<stop offset="1" stop-color="#F7DD43" stop-opacity="0"/>
</linearGradient>
<linearGradient id="paint46_linear_122_130" x1="51.5" y1="401.198" x2="51.5" y2="869.438" gradientUnits="userSpaceOnUse">
<stop stop-color="#F7DD43"/>
<stop offset="1" stop-color="#F7DD43" stop-opacity="0"/>
</linearGradient>
<linearGradient id="paint47_linear_122_130" x1="937.5" y1="-49.9271" x2="937.5" y2="399.421" gradientUnits="userSpaceOnUse">
<stop stop-color="#F7DD43"/>
<stop offset="1" stop-color="#F7DD43" stop-opacity="0"/>
</linearGradient>
<linearGradient id="paint48_linear_122_130" x1="937.5" y1="-49.9271" x2="937.5" y2="399.421" gradientUnits="userSpaceOnUse">
<stop stop-color="#F7DD43"/>
<stop offset="1" stop-color="#F7DD43" stop-opacity="0"/>
</linearGradient>
<linearGradient id="paint49_linear_122_130" x1="937.5" y1="-49.9271" x2="937.5" y2="399.421" gradientUnits="userSpaceOnUse">
<stop stop-color="#F7DD43"/>
<stop offset="1" stop-color="#F7DD43" stop-opacity="0"/>
</linearGradient>
<linearGradient id="paint50_linear_122_130" x1="937.5" y1="-49.9271" x2="937.5" y2="399.421" gradientUnits="userSpaceOnUse">
<stop stop-color="#F7DD43"/>
<stop offset="1" stop-color="#F7DD43" stop-opacity="0"/>
</linearGradient>
<linearGradient id="paint51_linear_122_130" x1="937.5" y1="-49.9271" x2="937.5" y2="399.421" gradientUnits="userSpaceOnUse">
<stop stop-color="#F7DD43"/>
<stop offset="1" stop-color="#F7DD43" stop-opacity="0"/>
</linearGradient>
<linearGradient id="paint52_linear_122_130" x1="937.5" y1="-49.9271" x2="937.5" y2="399.421" gradientUnits="userSpaceOnUse">
<stop stop-color="#F7DD43"/>
<stop offset="1" stop-color="#F7DD43" stop-opacity="0"/>
</linearGradient>
<linearGradient id="paint53_linear_122_130" x1="937.5" y1="-49.9271" x2="937.5" y2="399.421" gradientUnits="userSpaceOnUse">
<stop stop-color="#F7DD43"/>
<stop offset="1" stop-color="#F7DD43" stop-opacity="0"/>
</linearGradient>
<linearGradient id="paint54_linear_122_130" x1="937.5" y1="-49.9271" x2="937.5" y2="399.421" gradientUnits="userSpaceOnUse">
<stop stop-color="#F7DD43"/>
<stop offset="1" stop-color="#F7DD43" stop-opacity="0"/>
</linearGradient>
<linearGradient id="paint55_linear_122_130" x1="937.5" y1="-49.9271" x2="937.5" y2="399.421" gradientUnits="userSpaceOnUse">
<stop stop-color="#F7DD43"/>
<stop offset="1" stop-color="#F7DD43" stop-opacity="0"/>
</linearGradient>
<linearGradient id="paint56_linear_122_130" x1="937.5" y1="-49.9271" x2="937.5" y2="399.421" gradientUnits="userSpaceOnUse">
<stop stop-color="#F7DD43"/>
<stop offset="1" stop-color="#F7DD43" stop-opacity="0"/>
</linearGradient>
<linearGradient id="paint57_linear_122_130" x1="937.5" y1="-49.9271" x2="937.5" y2="399.421" gradientUnits="userSpaceOnUse">
<stop stop-color="#F7DD43"/>
<stop offset="1" stop-color="#F7DD43" stop-opacity="0"/>
</linearGradient>
<linearGradient id="paint58_linear_122_130" x1="937.5" y1="-49.9271" x2="937.5" y2="399.421" gradientUnits="userSpaceOnUse">
<stop stop-color="#F7DD43"/>
<stop offset="1" stop-color="#F7DD43" stop-opacity="0"/>
</linearGradient>
<linearGradient id="paint59_linear_122_130" x1="937.5" y1="-49.9271" x2="937.5" y2="399.421" gradientUnits="userSpaceOnUse">
<stop stop-color="#F7DD43"/>
<stop offset="1" stop-color="#F7DD43" stop-opacity="0"/>
</linearGradient>
<linearGradient id="paint60_linear_122_130" x1="937.5" y1="-49.9271" x2="937.5" y2="399.421" gradientUnits="userSpaceOnUse">
<stop stop-color="#F7DD43"/>
<stop offset="1" stop-color="#F7DD43" stop-opacity="0"/>
</linearGradient>
<linearGradient id="paint61_linear_122_130" x1="937.5" y1="-49.9271" x2="937.5" y2="399.421" gradientUnits="userSpaceOnUse">
<stop stop-color="#F7DD43"/>
<stop offset="1" stop-color="#F7DD43" stop-opacity="0"/>
</linearGradient>
<linearGradient id="paint62_linear_122_130" x1="937.5" y1="-49.9271" x2="937.5" y2="399.421" gradientUnits="userSpaceOnUse">
<stop stop-color="#F7DD43"/>
<stop offset="1" stop-color="#F7DD43" stop-opacity="0"/>
</linearGradient>
<linearGradient id="paint63_linear_122_130" x1="937.5" y1="-49.9271" x2="937.5" y2="399.421" gradientUnits="userSpaceOnUse">
<stop stop-color="#F7DD43"/>
<stop offset="1" stop-color="#F7DD43" stop-opacity="0"/>
</linearGradient>
<linearGradient id="paint64_linear_122_130" x1="937.5" y1="-49.9271" x2="937.5" y2="399.421" gradientUnits="userSpaceOnUse">
<stop stop-color="#F7DD43"/>
<stop offset="1" stop-color="#F7DD43" stop-opacity="0"/>
</linearGradient>
<linearGradient id="paint65_linear_122_130" x1="937.5" y1="-49.9271" x2="937.5" y2="399.421" gradientUnits="userSpaceOnUse">
<stop stop-color="#F7DD43"/>
<stop offset="1" stop-color="#F7DD43" stop-opacity="0"/>
</linearGradient>
<linearGradient id="paint66_linear_122_130" x1="937.5" y1="-49.9271" x2="937.5" y2="399.421" gradientUnits="userSpaceOnUse">
<stop stop-color="#F7DD43"/>
<stop offset="1" stop-color="#F7DD43" stop-opacity="0"/>
</linearGradient>
<linearGradient id="paint67_linear_122_130" x1="937.5" y1="-49.9271" x2="937.5" y2="399.421" gradientUnits="userSpaceOnUse">
<stop stop-color="#F7DD43"/>
<stop offset="1" stop-color="#F7DD43" stop-opacity="0"/>
</linearGradient>
<linearGradient id="paint68_linear_122_130" x1="937.5" y1="-49.9271" x2="937.5" y2="399.421" gradientUnits="userSpaceOnUse">
<stop stop-color="#F7DD43"/>
<stop offset="1" stop-color="#F7DD43" stop-opacity="0"/>
</linearGradient>
<linearGradient id="paint69_linear_122_130" x1="937.5" y1="-49.9271" x2="937.5" y2="399.421" gradientUnits="userSpaceOnUse">
<stop stop-color="#F7DD43"/>
<stop offset="1" stop-color="#F7DD43" stop-opacity="0"/>
</linearGradient>
<linearGradient id="paint70_linear_122_130" x1="937.5" y1="-49.9271" x2="937.5" y2="399.421" gradientUnits="userSpaceOnUse">
<stop stop-color="#F7DD43"/>
<stop offset="1" stop-color="#F7DD43" stop-opacity="0"/>
</linearGradient>
<linearGradient id="paint71_linear_122_130" x1="937.5" y1="-49.9271" x2="937.5" y2="399.421" gradientUnits="userSpaceOnUse">
<stop stop-color="#F7DD43"/>
<stop offset="1" stop-color="#F7DD43" stop-opacity="0"/>
</linearGradient>
<linearGradient id="paint72_linear_122_130" x1="937.5" y1="-49.9271" x2="937.5" y2="399.421" gradientUnits="userSpaceOnUse">
<stop stop-color="#F7DD43"/>
<stop offset="1" stop-color="#F7DD43" stop-opacity="0"/>
</linearGradient>
<linearGradient id="paint73_linear_122_130" x1="937.5" y1="-49.9271" x2="937.5" y2="399.421" gradientUnits="userSpaceOnUse">
<stop stop-color="#F7DD43"/>
<stop offset="1" stop-color="#F7DD43" stop-opacity="0"/>
</linearGradient>
<linearGradient id="paint74_linear_122_130" x1="937.5" y1="-49.9271" x2="937.5" y2="399.421" gradientUnits="userSpaceOnUse">
<stop stop-color="#F7DD43"/>
<stop offset="1" stop-color="#F7DD43" stop-opacity="0"/>
</linearGradient>
<linearGradient id="paint75_linear_122_130" x1="937.5" y1="-49.9271" x2="937.5" y2="399.421" gradientUnits="userSpaceOnUse">
<stop stop-color="#F7DD43"/>
<stop offset="1" stop-color="#F7DD43" stop-opacity="0"/>
</linearGradient>
<linearGradient id="paint76_linear_122_130" x1="937.5" y1="-49.9271" x2="937.5" y2="399.421" gradientUnits="userSpaceOnUse">
<stop stop-color="#F7DD43"/>
<stop offset="1" stop-color="#F7DD43" stop-opacity="0"/>
</linearGradient>
<linearGradient id="paint77_linear_122_130" x1="937.5" y1="-49.9271" x2="937.5" y2="399.421" gradientUnits="userSpaceOnUse">
<stop stop-color="#F7DD43"/>
<stop offset="1" stop-color="#F7DD43" stop-opacity="0"/>
</linearGradient>
<linearGradient id="paint78_linear_122_130" x1="937.5" y1="-49.9271" x2="937.5" y2="399.421" gradientUnits="userSpaceOnUse">
<stop stop-color="#F7DD43"/>
<stop offset="1" stop-color="#F7DD43" stop-opacity="0"/>
</linearGradient>
<linearGradient id="paint79_linear_122_130" x1="937.5" y1="-49.9271" x2="937.5" y2="399.421" gradientUnits="userSpaceOnUse">
<stop stop-color="#F7DD43"/>
<stop offset="1" stop-color="#F7DD43" stop-opacity="0"/>
</linearGradient>
<linearGradient id="paint80_linear_122_130" x1="937.5" y1="-49.9271" x2="937.5" y2="399.421" gradientUnits="userSpaceOnUse">
<stop stop-color="#F7DD43"/>
<stop offset="1" stop-color="#F7DD43" stop-opacity="0"/>
</linearGradient>
<linearGradient id="paint81_linear_122_130" x1="937.5" y1="-49.9271" x2="937.5" y2="399.421" gradientUnits="userSpaceOnUse">
<stop stop-color="#F7DD43"/>
<stop offset="1" stop-color="#F7DD43" stop-opacity="0"/>
</linearGradient>
<linearGradient id="paint82_linear_122_130" x1="937.5" y1="-49.9271" x2="937.5" y2="399.421" gradientUnits="userSpaceOnUse">
<stop stop-color="#F7DD43"/>
<stop offset="1" stop-color="#F7DD43" stop-opacity="0"/>
</linearGradient>
<linearGradient id="paint83_linear_122_130" x1="937.5" y1="-49.9271" x2="937.5" y2="399.421" gradientUnits="userSpaceOnUse">
<stop stop-color="#F7DD43"/>
<stop offset="1" stop-color="#F7DD43" stop-opacity="0"/>
</linearGradient>
<linearGradient id="paint84_linear_122_130" x1="937.5" y1="-49.9271" x2="937.5" y2="399.421" gradientUnits="userSpaceOnUse">
<stop stop-color="#F7DD43"/>
<stop offset="1" stop-color="#F7DD43" stop-opacity="0"/>
</linearGradient>
<linearGradient id="paint85_linear_122_130" x1="937.5" y1="-49.9271" x2="937.5" y2="399.421" gradientUnits="userSpaceOnUse">
<stop stop-color="#F7DD43"/>
<stop offset="1" stop-color="#F7DD43" stop-opacity="0"/>
</linearGradient>
<linearGradient id="paint86_linear_122_130" x1="937.5" y1="-49.9271" x2="937.5" y2="399.421" gradientUnits="userSpaceOnUse">
<stop stop-color="#F7DD43"/>
<stop offset="1" stop-color="#F7DD43" stop-opacity="0"/>
</linearGradient>
<linearGradient id="paint87_linear_122_130" x1="937.5" y1="-49.9271" x2="937.5" y2="399.421" gradientUnits="userSpaceOnUse">
<stop stop-color="#F7DD43"/>
<stop offset="1" stop-color="#F7DD43" stop-opacity="0"/>
</linearGradient>
<linearGradient id="paint88_linear_122_130" x1="937.5" y1="-49.9271" x2="937.5" y2="399.421" gradientUnits="userSpaceOnUse">
<stop stop-color="#F7DD43"/>
<stop offset="1" stop-color="#F7DD43" stop-opacity="0"/>
</linearGradient>
<linearGradient id="paint89_linear_122_130" x1="937.5" y1="-49.9271" x2="937.5" y2="399.421" gradientUnits="userSpaceOnUse">
<stop stop-color="#F7DD43"/>
<stop offset="1" stop-color="#F7DD43" stop-opacity="0"/>
</linearGradient>
<linearGradient id="paint90_linear_122_130" x1="937.5" y1="-49.9271" x2="937.5" y2="399.421" gradientUnits="userSpaceOnUse">
<stop stop-color="#F7DD43"/>
<stop offset="1" stop-color="#F7DD43" stop-opacity="0"/>
</linearGradient>
<linearGradient id="paint91_linear_122_130" x1="937.5" y1="-49.9271" x2="937.5" y2="399.421" gradientUnits="userSpaceOnUse">
<stop stop-color="#F7DD43"/>
<stop offset="1" stop-color="#F7DD43" stop-opacity="0"/>
</linearGradient>
<linearGradient id="paint92_linear_122_130" x1="937.5" y1="-49.9271" x2="937.5" y2="399.421" gradientUnits="userSpaceOnUse">
<stop stop-color="#F7DD43"/>
<stop offset="1" stop-color="#F7DD43" stop-opacity="0"/>
</linearGradient>
<linearGradient id="paint93_linear_122_130" x1="937.5" y1="-49.9271" x2="937.5" y2="399.421" gradientUnits="userSpaceOnUse">
<stop stop-color="#F7DD43"/>
<stop offset="1" stop-color="#F7DD43" stop-opacity="0"/>
</linearGradient>
<clipPath id="clip0_122_130">
<rect width="1024" height="753" fill="white"/>
</clipPath>
</defs>
</svg>
